1.9Hzhigh3min_grf.mot
version=1
nRows=30
nColumns 19
inDegrees=yes
endheader
time	1_ground_force_vx	1_ground_force_vy	1_ground_force_vz	1_ground_force_px	1_ground_force_py	1_ground_force_pz	1_ground_torque_x	1_ground_torque_y	1_ground_torque_z	2_ground_force_vx	2_ground_force_vy	2_ground_force_vz	2_ground_force_px	2_ground_force_py	2_ground_force_pz	2_ground_torque_x	2_ground_torque_y	2_ground_torque_z
            3.751500	            0.505067	            1.260188	            0.416862	           -0.233013	            0.005581	           -0.255695	            0.075232	           -0.036229	           -0.091674	            0.046727	            0.001173	           -0.281589	           -0.232311	            0.006130	           -0.833667	           -0.056161	           -0.047669	            0.056406
            3.752000	            0.505148	            1.440257	            0.463491	           -0.233013	            0.005581	           -0.255695	            0.185750	           -0.054612	           -0.110831	            0.377334	           -0.734236	           -0.284356	           -0.232311	            0.006130	           -0.833667	           -0.037247	           -0.085344	            0.037413
            3.752500	            0.505133	            0.899656	            0.415316	           -0.233013	            0.005581	           -0.255695	            0.094186	           -0.017658	           -0.110426	            0.141735	           -0.366618	           -0.329871	           -0.232311	            0.006130	           -0.833667	           -0.074878	           -0.066642	            0.056346
            3.753000	            0.413546	            0.358842	            0.413225	           -0.233013	            0.005581	           -0.255695	            0.075815	           -0.110218	           -0.095870	            0.185200	            0.554795	           -0.467390	           -0.232311	            0.006130	           -0.833667	           -0.112576	           -0.038218	           -0.000087
            3.753500	            0.458981	            0.719972	            0.277090	           -0.233013	            0.005581	           -0.255695	            0.062492	           -0.091395	           -0.169006	            0.283799	           -0.735913	            0.091108	           -0.232311	            0.006130	           -0.833667	           -0.206298	           -0.095273	           -0.000249
            3.754000	            0.413528	            1.079708	            0.462173	           -0.233013	            0.005581	           -0.255695	            0.092158	           -0.054753	           -0.095698	            0.327867	            0.001854	           -0.187852	           -0.232311	            0.006130	           -0.833667	           -0.075200	            0.009383	           -0.056485
            3.754500	            0.321941	            0.538893	            0.460082	           -0.233013	            0.005581	           -0.255695	            0.167674	           -0.036455	           -0.062101	            0.189955	           -0.735080	           -0.237348	           -0.232311	            0.006130	           -0.833667	           -0.112603	           -0.019649	            0.094232
            3.755000	            0.001154	            0.538634	            0.506734	           -0.233013	            0.005581	           -0.255695	            0.052778	           -0.063870	           -0.188405	           -0.043568	           -0.920576	           -0.097122	           -0.232311	            0.006130	           -0.833667	           -0.093729	           -0.066172	           -0.094447
            3.755500	            0.367457	            1.080092	            0.370575	           -0.233013	            0.005581	           -0.255695	            0.095972	           -0.063859	           -0.135298	           -0.233064	           -0.367971	           -0.329711	           -0.232311	            0.006130	           -0.833667	           -0.112499	           -0.057190	            0.018696
            3.756000	            0.413594	            0.719176	            0.460627	           -0.233013	            0.005581	           -0.255695	            0.073480	           -0.063758	           -0.152072	            0.188544	           -0.366114	           -0.423747	           -0.232311	            0.006130	           -0.833667	            0.019084	           -0.084939	           -0.019162
            3.756500	            0.230060	            0.359003	            0.367824	           -0.233013	            0.005581	           -0.255695	            0.040153	           -0.073257	           -0.122240	            0.093556	            0.001510	           -0.328537	           -0.232311	            0.006130	           -0.833667	           -0.131130	           -0.104387	           -0.019165
            3.757000	            0.459209	            0.719578	            0.368801	           -0.233013	            0.005581	           -0.255695	            0.096279	           -0.165574	           -0.113014	            0.094241	           -0.182806	           -0.282266	           -0.232311	            0.006130	           -0.833667	           -0.150130	           -0.038488	            0.037629
            3.757500	            0.229146	            1.622042	            0.098100	           -0.233013	            0.005581	           -0.255695	            0.144986	           -0.101057	           -0.103866	            0.236161	           -0.550930	           -0.189783	           -0.232311	            0.006130	           -0.833667	           -0.150001	           -0.085415	           -0.056790
            3.758000	            0.321647	            0.899818	            0.369916	           -0.233013	            0.005581	           -0.255695	            0.058726	           -0.064209	           -0.061962	            0.143188	           -0.735918	           -0.049616	           -0.232311	            0.006130	           -0.833667	            0.000120	           -0.037676	           -0.037835
            3.758500	            0.138470	            1.079655	            0.462856	           -0.233013	            0.005581	           -0.255695	            0.035716	           -0.036242	           -0.144803	            0.049426	           -0.735755	           -0.190361	           -0.232311	            0.006130	           -0.833667	           -0.206390	           -0.085350	           -0.132167
            3.759000	            0.459272	            1.620514	            0.464378	           -0.233013	            0.005581	           -0.255695	            0.091771	           -0.063895	           -0.112599	            0.422211	           -0.181789	           -0.235477	           -0.232311	            0.006130	           -0.833667	           -0.074852	           -0.076027	            0.037463
            3.759500	            0.413756	            1.079314	            0.553885	           -0.233013	            0.005581	           -0.255695	           -0.024153	           -0.045932	           -0.001381	            0.143085	           -0.735082	           -0.284257	           -0.232311	            0.006130	           -0.833667	           -0.055905	           -0.113972	            0.093870
            3.760000	            0.367508	            0.178960	            0.320854	           -0.233013	            0.005581	           -0.255695	            0.136526	           -0.110876	            0.052413	            0.188564	           -0.366281	           -0.376819	           -0.232311	            0.006130	           -0.833667	           -0.093620	           -0.085413	           -0.000264
            3.760500	            0.322103	            0.899031	            0.553339	           -0.233013	            0.005581	           -0.255695	            0.013276	           -0.110267	           -0.099643	           -0.092453	           -0.367965	           -0.188987	           -0.232311	            0.006130	           -0.833667	           -0.093662	           -0.075893	           -0.019080
            3.761000	            0.413480	            0.719373	            0.414771	           -0.233013	            0.005581	           -0.255695	            0.131848	           -0.082396	           -0.114700	            0.093576	            0.001343	           -0.281608	           -0.232311	            0.006130	           -0.833667	           -0.056202	           -0.047333	           -0.037845
            3.761500	            0.505396	           -0.542469	            0.409133	           -0.233013	            0.005581	           -0.255695	            0.038853	           -0.073210	           -0.091678	            0.140365	            0.002014	           -0.422413	           -0.232311	            0.006130	           -0.833667	           -0.018531	           -0.057187	            0.112907
            3.762000	            0.137754	            1.261100	            0.188493	           -0.233013	            0.005581	           -0.255695	            0.084968	           -0.027160	           -0.107297	            0.188044	           -0.183304	           -0.047665	           -0.232311	            0.006130	           -0.833667	           -0.075004	           -0.047266	           -0.075538
            3.762500	            0.413189	           -0.181169	            0.227483	           -0.233013	            0.005581	           -0.255695	            0.196519	           -0.091553	           -0.133666	            0.049447	           -0.735922	           -0.143432	           -0.232311	            0.006130	           -0.833667	           -0.093610	           -0.094664	           -0.056848
            3.763000	            0.321665	            0.178951	            0.320968	           -0.233013	            0.005581	           -0.255695	            0.117654	           -0.101496	            0.012949	            0.142379	           -0.550599	           -0.377456	           -0.232311	            0.006130	           -0.833667	           -0.112447	           -0.075961	           -0.019072
            3.763500	            0.551530	            0.358082	            0.596307	           -0.233013	            0.005581	           -0.255695	            0.068007	           -0.100907	           -0.089946	            0.096920	           -0.919566	           -0.237966	           -0.232311	            0.006130	           -0.833667	           -0.074758	           -0.104318	            0.018511
            3.764000	            0.276571	           -0.182768	            0.594671	           -0.233013	            0.005581	           -0.255695	            0.086867	           -0.119113	           -0.195771	            0.094241	           -0.182806	           -0.282266	           -0.232311	            0.006130	           -0.833667	           -0.056091	           -0.075758	           -0.019096
            3.764500	            0.551188	            0.358672	            0.458740	           -0.233013	            0.005581	           -0.255695	            0.073811	           -0.017639	           -0.108402	            0.002515	           -0.735422	           -0.331125	           -0.232311	            0.006130	           -0.833667	           -0.074996	           -0.047333	           -0.056687
            3.765000	            0.367427	           -0.001109	            0.274225	           -0.233013	            0.005581	           -0.255695	            0.100670	           -0.054779	           -0.097636	            0.285649	           -1.287186	           -0.239359	           -0.232311	            0.006130	           -0.833667	           -0.093755	           -0.056786	           -0.075563
            3.765500	            0.367508	            0.178960	            0.320854	           -0.233013	            0.005581	           -0.255695	            0.173633	           -0.017709	           -0.116462	            0.139097	            0.369808	           -0.280314	           -0.232311	            0.006130	           -0.833667	           -0.112532	           -0.056921	           -0.056705
            3.766000	            0.413285	            0.539500	            0.322286	           -0.233013	            0.005581	           -0.255695	            0.135679	           -0.035860	           -0.189696	            0.141776	           -0.366952	           -0.236014	           -0.232311	            0.006130	           -0.833667	           -0.074758	           -0.104318	            0.018511
